<svg t="1666244791142" class="icon" viewBox="0 0 1024 1024" version="1.1" xmlns="http://www.w3.org/2000/svg" p-id="2337" width="200" height="200"><path d="M514.5 678c-101.8 0-184.3-82.5-184.3-184.3 0-101.8 82.5-184.3 184.3-184.3s184.3 82.5 184.3 184.3c0.1 101.7-82.5 184.3-184.3 184.3z m0-304.7c-66.5 0-120.3 53.9-120.3 120.3S448.1 614 514.5 614s120.3-53.9 120.3-120.3S581 373.3 514.5 373.3z m0.4 408.4c185.2 0 354.2-104.3 440.2-273.3l7.5-14.7-7.5-14.7c-86-168.3-255-273.3-440.2-273.3-185.8 0-354.8 105-440.8 273.3l-7.5 14.7 7.5 14.7c86 168.9 255 273.3 440.8 273.3z m-377.3-288c77.3-138.9 220.1-224 377.2-224 156.5 0 299.3 85.1 377.2 224-77.3 138.9-220.7 224-377.2 224-157.1 0-299.9-85.2-377.2-224z" fill="#00A6FD" p-id="2338"></path></svg>