<svg t="1666244694668" class="icon" viewBox="0 0 1024 1024" version="1.1" xmlns="http://www.w3.org/2000/svg" p-id="2172" data-spm-anchor-id="a313x.7781069.0.i1" width="200" height="200"><path d="M777.2 841.2l45.2-45.3-621-621-45.3 45.3 77.5 77.5C166.5 344 110.3 407.4 71.3 483.8l-7.5 14.7 7.5 14.7c86 169 255 273.3 440.8 273.3 61.7 0 121.6-11.6 177.2-33.3l87.9 88zM512.1 722.5c-157.1 0-299.9-85.1-377.2-224 35.8-64.3 85.6-117.1 144.4-155.2l69.3 69.3c-13.5 25.6-21.2 54.9-21.2 85.9 0 101.8 82.5 184.3 184.3 184.3 31 0 60.2-7.7 85.9-21.2l41.6 41.6c-40.6 12.7-83.3 19.3-127.1 19.3zM549 613c-11.7 3.8-24.2 5.9-37.2 5.9-66.5 0-120.3-53.9-120.3-120.3 0-13 2-25.5 5.9-37.2L549 613z m410.8-114.5l-7.5-14.7c-86-168.3-255-273.3-440.2-273.3-54.8 0-108.1 9.1-158.3 26.3L405 288c34.5-8.9 70.4-13.5 107.1-13.5 156.5 0 299.3 85.1 377.2 224-32.6 58.6-77 107.6-129.2 144.7l45.3 45.3c60.2-45.2 110.8-104.6 146.8-175.3l7.6-14.7z m-276.6 67.8l-52.1-52.1c0.7-5.1 1-10.3 1-15.6 0-66.4-53.9-120.3-120.3-120.3-5.3 0-10.5 0.3-15.6 1L444 327.1c21-8.3 43.8-12.9 67.8-12.9 101.8 0 184.3 82.5 184.3 184.3 0 24-4.6 46.8-12.9 67.8z" fill="#00A6FD" p-id="2173" data-spm-anchor-id="a313x.7781069.0.i0" class=""></path></svg>